<svg width="18" height="18" viewBox="0 0 18 18" fill="none" xmlns="http://www.w3.org/2000/svg">
<mask id="mask0_415_682" style="mask-type:alpha" maskUnits="userSpaceOnUse" x="0" y="0" width="18" height="18">
<rect width="18" height="18" transform="translate(18) rotate(90)" fill="white"/>
</mask>
<g mask="url(#mask0_415_682)">
<path d="M4.53348 8.99999C4.53348 9.36997 4.67934 9.6937 4.97105 9.97119L11.3638 16.2999C11.5986 16.5347 11.8832 16.6521 12.2176 16.6521C12.5663 16.6521 12.8615 16.5312 13.1034 16.2893C13.3454 16.0545 13.4663 15.7663 13.4663 15.4248C13.4663 15.0833 13.3347 14.7809 13.0714 14.5176L7.4684 9L13.0714 3.48235C13.3347 3.21909 13.4663 2.91671 13.4663 2.57519C13.4663 2.23367 13.3454 1.94196 13.1034 1.70005C12.8615 1.46526 12.5663 1.34786 12.2176 1.34786C11.8832 1.34786 11.5986 1.46526 11.3638 1.70005L4.97105 8.0288C4.82164 8.17822 4.71136 8.33119 4.64021 8.48772C4.56906 8.64425 4.53348 8.81501 4.53348 8.99999Z" fill="#8F9692"/>
</g>
</svg>
